#!OML:ASF I:\Actors\actors\Patient Classification 2\Patient 1\Session 1\actor1.ASF
:FULLY-SPECIFIED
:DEGREES
704
root -0.622433 18.6936 5.51004 0.34857 4.20273 -1.12266
lowerback 3.28243 0.24607 3.14683
upperback -2.34482 0.45128 -1.0427
thorax -4.2327 0.115207 -2.87588
lowerneck -12.5182 -6.39464 -3.16323
upperneck 16.6294 -9.39116 6.51077
head 7.6504 -4.10109 1.65883
rclavicle 1.12189e-014 1.98785e-015
rhumerus 49.7804 -7.63504 -31.2916
rradius 94.9339
rwrist -10.5323
rhand -31.9199 343.243
rfingers 7.12502
rthumb -5.17138 -406.673
lclavicle 1.12189e-014 1.98785e-015
lhumerus -14.1798 -59.8631 88.1243
lradius 104.383
lwrist 19.3932
lhand 8.46131 -27.8874
lfingers 7.12502
lthumb 33.6655 -1.03
rfemur 0 0 0
rtibia 0
rfoot 0 0
rtoes 0
lfemur -4.41034 -6.46153 -13.0015
ltibia 21.4922
lfoot -22.2224 12.2204
ltoes -55.8613
705
root -0.624164 18.6932 5.52299 0.429941 3.83225 -1.06333
lowerback 3.17882 0.340121 3.03095
upperback -2.46816 0.574858 -0.895507
thorax -4.29507 0.179703 -2.66611
lowerneck -12.2999 -6.28659 -3.10742
upperneck 16.8625 -9.22818 6.27768
head 7.66482 -4.04105 1.59769
rclavicle 3.05631e-015 6.36111e-015
rhumerus 50.225 -6.37056 -30.5803
rradius 96.3067
rwrist -9.69275
rhand -31.5103 343.562
rfingers 7.12502
rthumb -4.77593 -406.364
lclavicle 3.05631e-015 6.36111e-015
lhumerus -14.2916 -58.9205 88.1325
lradius 104.288
lwrist 19.2996
lhand 8.46427 -27.9955
lfingers 7.12502
lthumb 33.6683 -1.13873
rfemur 0 0 0
rtibia 0
rfoot 0 0
rtoes 0
lfemur -4.2973 -6.3833 -13.0809
ltibia 21.382
lfoot -22.332 12.4187
ltoes -55.6926
706
root -0.625067 18.6937 5.53657 0.539013 3.48065 -1.04875
lowerback 2.88657 0.340272 3.23579
upperback -2.49754 0.573195 -0.978166
thorax -4.15804 0.173582 -2.86393
lowerneck -12.1558 -6.10265 -2.77709
upperneck 17.0676 -9.01809 6.0794
head 7.67082 -3.93707 1.50693
rclavicle -9.59136e-015 5.1684e-015
rhumerus 50.5558 -4.93571 -30.5958
rradius 97.7278
rwrist -9.4267
rhand -30.7031 343.6
rfingers 7.12502
rthumb -3.99648 -406.342
lclavicle -9.59136e-015 5.1684e-015
lhumerus -14.1932 -58.0206 87.515
lradius 104.19
lwrist 19.2655
lhand 8.36009 -28.0076
lfingers 7.12502
lthumb 33.5693 -1.12924
rfemur 0 0 0
rtibia 0
rfoot 0 0
rtoes 0
lfemur -4.21861 -6.3299 -13.1107
ltibia 21.2815
lfoot -22.4674 12.5941
ltoes -55.5189
707
root -0.626008 18.6924 5.5493 0.61376 3.16166 -1.05918
lowerback 2.69214 0.333072 3.27591
upperback -2.56242 0.561175 -0.942831
thorax -4.11617 0.166881 -2.84746
lowerneck -12.0329 -5.91267 -2.59461
upperneck 17.4366 -8.79332 5.94324
head 7.74474 -3.825 1.45925
rclavicle -7.20594e-016 9.93923e-016
rhumerus 50.7331 -3.2537 -30.7284
rradius 99.094
rwrist -10.1491
rhand -28.4874 345.671
rfingers 7.12502
rthumb -1.85669 -404.301
lclavicle -7.20594e-016 9.93923e-016
lhumerus -14.3813 -57.1002 87.361
lradius 103.97
lwrist 19.0908
lhand 8.25401 -28.02
lfingers 7.12502
lthumb 33.4685 -1.11985
rfemur 0 0 0
rtibia 0
rfoot 0 0
rtoes 0
lfemur -4.13003 -6.31706 -13.1256
ltibia 21.2004
lfoot -22.6107 12.8796
ltoes -55.5751
708
root -0.625964 18.6905 5.55944 0.679652 2.88503 -1.0824
lowerback 2.52293 0.305444 3.29533
upperback -2.64846 0.522816 -0.881363
thorax -4.11286 0.147062 -2.7912
lowerneck -11.8342 -5.70663 -2.51048
upperneck 17.813 -8.55335 5.93631
head 7.81823 -3.7016 1.47309
rclavicle 1.84621e-014 1.19271e-014
rhumerus 50.7115 -1.23462 -30.9725
rradius 100.697
rwrist -11.3376
rhand -25.7971 346.865
rfingers 7.12502
rthumb 0.741674 -403.113
lclavicle 1.84621e-014 1.19271e-014
lhumerus -14.9005 -56.1519 87.5592
lradius 103.67
lwrist 18.7229
lhand 8.2085 -28.0492
lfingers 7.12502
lthumb 33.4252 -1.13969
rfemur 0 0 0
rtibia 0
rfoot 0 0
rtoes 0
lfemur -4.07297 -6.32493 -13.1338
ltibia 21.1384
lfoot -22.6726 13.1648
ltoes -55.6467
709
root -0.626105 18.6903 5.56701 0.758728 2.62634 -1.10393
lowerback 2.33634 0.260556 3.30611
upperback -2.72544 0.460386 -0.815322
thorax -4.09198 0.116067 -2.72389
lowerneck -11.6193 -5.50226 -2.40577
upperneck 18.1089 -8.30255 5.8771
head 7.85865 -3.57891 1.46864
rclavicle -6.88292e-015 -1.07344e-014
rhumerus 50.4735 1.17564 -31.1246
rradius 102.013
rwrist -11.4088
rhand -25.1255 347.903
rfingers 7.12502
rthumb 1.39039 -402.072
lclavicle -6.88292e-015 -1.07344e-014
lhumerus -15.6664 -55.1564 87.97
lradius 103.367
lwrist 18.207
lhand 8.23501 -28.2129
lfingers 7.12502
lthumb 33.4504 -1.30887
rfemur 0 0 0
rtibia 0
rfoot 0 0
rtoes 0
lfemur -4.05438 -6.3517 -13.1395
ltibia 21.0885
lfoot -22.7191 13.4155
ltoes -55.605
710
root -0.627796 18.6913 5.57366 0.802716 2.37829 -1.1018
lowerback 2.14082 0.210154 3.28373
upperback -2.72418 0.387336 -0.761685
thorax -3.98526 0.0832663 -2.64995
lowerneck -11.5731 -5.29607 -2.2872
upperneck 18.384 -8.0366 5.76229
head 7.91923 -3.44996 1.44078
rclavicle 4.39811e-015 9.93923e-015
rhumerus 50.1656 3.70885 -31.2033
rradius 103.252
rwrist -11.8383
rhand -24.4513 348.13
rfingers 7.12502
rthumb 2.04149 -401.84
lclavicle 4.39811e-015 9.93923e-015
lhumerus -16.3807 -54.1735 88.3467
lradius 103.087
lwrist 17.61
lhand 8.33686 -28.3535
lfingers 7.12502
lthumb 33.5473 -1.47038
rfemur 0 0 0
rtibia 0
rfoot 0 0
rtoes 0
lfemur -3.99167 -6.44306 -13.1697
ltibia 21.0492
lfoot -22.8907 13.6506
ltoes -55.4098
711
root -0.631655 18.6912 5.58086 0.810867 2.10132 -1.09163
lowerback 1.97006 0.172379 3.16473
upperback -2.69729 0.328399 -0.694291
thorax -3.865 0.0610308 -2.50871
lowerneck -11.5152 -5.11077 -2.10987
upperneck 18.6029 -7.79008 5.56827
head 7.95488 -3.33538 1.37574
rclavicle -9.38015e-015 -1.76918e-014
rhumerus 49.6923 6.4589 -31.1841
rradius 104.277
rwrist -12.0511
rhand -24.0085 347.873
rfingers 7.12502
rthumb 2.46918 -402.092
lclavicle -9.38015e-015 -1.76918e-014
lhumerus -17.1363 -53.207 88.7807
lradius 102.789
lwrist 16.8969
lhand 8.42392 -28.4256
lfingers 7.12502
lthumb 33.63 -1.5605
rfemur 0 0 0
rtibia 0
rfoot 0 0
rtoes 0
lfemur -3.89642 -6.39475 -13.1959
ltibia 21.0238
lfoot -22.9993 13.8273
ltoes -55.367
712
root -0.635572 18.6906 5.58842 0.826681 1.7742 -1.08035
lowerback 1.80599 0.139437 2.98256
upperback -2.70743 0.274853 -0.620628
thorax -3.78641 0.041977 -2.32641
lowerneck -11.3698 -4.95248 -1.85267
upperneck 18.897 -7.58948 5.31597
head 7.99714 -3.2428 1.27504
rclavicle -4.5969e-016 7.55382e-015
rhumerus 48.9812 9.56767 -31.3012
rradius 105.179
rwrist -11.8263
rhand -23.6555 347.298
rfingers 7.12502
rthumb 2.81005 -402.663
lclavicle -4.5969e-016 7.55382e-015
lhumerus -18.1598 -52.1715 89.4091
lradius 102.393
lwrist 16.0566
lhand 8.35582 -28.7243
lfingers 7.12502
lthumb 33.5653 -1.84511
rfemur 0 0 0
rtibia 0
rfoot 0 0
rtoes 0
lfemur -3.8187 -6.19686 -13.2179
ltibia 21.0082
lfoot -23.0075 13.9992
ltoes -55.5158
713
root -0.637411 18.692 5.59437 0.863838 1.41525 -1.06855
lowerback 1.64492 0.122682 2.83086
upperback -2.72774 0.244348 -0.559289
thorax -3.71831 0.0328958 -2.17552
lowerneck -11.232 -4.80439 -1.71015
upperneck 19.1967 -7.40568 5.18711
head 8.05391 -3.1541 1.23117
rclavicle -5.34234e-015 -1.49089e-014
rhumerus 48.0241 12.9171 -31.631
rradius 105.894
rwrist -11.083
rhand -23.1174 347.337
rfingers 7.12502
rthumb 3.32974 -402.617
lclavicle -5.34234e-015 -1.49089e-014
lhumerus -19.3418 -51.1127 90.1853
lradius 101.919
lwrist 15.2585
lhand 8.25118 -29.1243
lfingers 7.12502
lthumb 33.4658 -2.2236
rfemur 0 0 0
rtibia 0
rfoot 0 0
rtoes 0
lfemur -3.74536 -6.07108 -13.2544
ltibia 20.9851
lfoot -23.1112 14.2065
ltoes -55.5088
714
root -0.638009 18.6938 5.59855 0.87356 1.01642 -1.06544
lowerback 1.55969 0.160344 2.72131
upperback -2.7231 0.289733 -0.51434
thorax -3.66282 0.0601775 -2.06925
lowerneck -11.1556 -4.68321 -1.61343
upperneck 19.4085 -7.25796 5.12707
head 8.09899 -3.07977 1.21235
rclavicle -6.84565e-015 -1.41137e-014
rhumerus 46.753 16.2617 -32.0886
rradius 106.415
rwrist -9.76538
rhand -22.3967 347.527
rfingers 7.12502
rthumb 4.02573 -402.414
lclavicle -6.84565e-015 -1.41137e-014
lhumerus -20.4662 -50.2047 91.0082
lradius 101.445
lwrist 14.5533
lhand 8.22572 -29.23
lfingers 7.12502
lthumb 33.4416 -2.32403
rfemur 0 0 0
rtibia 0
rfoot 0 0
rtoes 0
lfemur -3.62676 -6.00582 -13.2964
ltibia 20.9649
lfoot -23.2994 14.4553
ltoes -55.3973
715
root -0.637569 18.6927 5.60282 0.823295 0.562879 -1.03836
lowerback 1.54872 0.23955 2.6001
upperback -2.67965 0.390806 -0.506774
thorax -3.60627 0.115322 -1.99779
lowerneck -11.1258 -4.58938 -1.39543
upperneck 19.5589 -7.15382 5.00334
head 8.12711 -3.02382 1.1471
rclavicle -1.4387e-014 -1.41137e-014
rhumerus 45.0868 19.6599 -32.8214
rradius 106.939
rwrist -7.90819
rhand -21.6683 347.269
rfingers 7.12502
rthumb 4.72909 -402.659
lclavicle -1.4387e-014 -1.41137e-014
lhumerus -21.5559 -49.3932 91.8138
lradius 100.989
lwrist 13.7764
lhand 8.20417 -28.9624
lfingers 7.12502
lthumb 33.4211 -2.05204
rfemur 0 0 0
rtibia 0
rfoot 0 0
rtoes 0
lfemur -3.42376 -6.00744 -13.3917
ltibia 20.9558
lfoot -23.5796 14.7767
ltoes -55.2484
716
root -0.637727 18.6905 5.60647 0.749752 0.119937 -1.04685
lowerback 1.57763 0.343368 2.54869
upperback -2.60851 0.526515 -0.543743
thorax -3.54155 0.185484 -2.01308
lowerneck -11.0912 -4.48527 -1.17647
upperneck 19.5923 -7.05157 4.9921
head 8.12036 -2.9604 1.11919
rclavicle 6.60959e-015 -6.36111e-015
rhumerus 42.9189 23.2084 -34.0565
rradius 107.426
rwrist -5.63363
rhand -20.826 347.659
rfingers 7.12502
rthumb 5.54236 -402.249
lclavicle 6.60959e-015 -6.36111e-015
lhumerus -22.6524 -48.6232 92.575
lradius 100.59
lwrist 13.0535
lhand 8.33909 -28.2429
lfingers 7.12502
lthumb 33.5494 -1.36026
rfemur 0 0 0
rtibia 0
rfoot 0 0
rtoes 0
lfemur -3.19489 -6.01774 -13.4461
ltibia 20.9376
lfoot -23.7707 15.2011
ltoes -55.0653
